<svg width="50" height="50" viewBox="0 0 50 50" fill="none" xmlns="http://www.w3.org/2000/svg">
<path d="M28.2167 21.7833C26.5102 20.0776 24.1962 19.1194 21.7833 19.1194C19.3705 19.1194 17.0565 20.0776 15.35 21.7833L8.91459 28.2167C7.20809 29.9232 6.24939 32.2377 6.24939 34.6511C6.24939 37.0644 7.20809 39.3789 8.91459 41.0854C10.6211 42.7919 12.9356 43.7506 15.349 43.7506C17.7623 43.7506 20.0768 42.7919 21.7833 41.0854L25 37.8688" stroke="#333333" stroke-width="2" stroke-linecap="round" stroke-linejoin="round"/>
<path d="M21.7833 28.2167C23.4898 29.9224 25.8038 30.8807 28.2167 30.8807C30.6295 30.8807 32.9435 29.9224 34.65 28.2167L41.0854 21.7833C42.7919 20.0768 43.7506 17.7623 43.7506 15.349C43.7506 12.9356 42.7919 10.6211 41.0854 8.91459C39.3789 7.20809 37.0644 6.24939 34.651 6.24939C32.2377 6.24939 29.9232 7.20809 28.2167 8.91459L25 12.1313" stroke="#333333" stroke-width="2" stroke-linecap="round" stroke-linejoin="round"/>
</svg>
