<svg width="54" height="53" viewBox="0 0 54 53" fill="none" xmlns="http://www.w3.org/2000/svg">
<path d="M1.66669 45.9444V7.05556C1.66669 5.58213 2.32517 4.16905 3.49727 3.12718C4.66937 2.08532 6.25908 1.5 7.91669 1.5H49.7917C50.289 1.5 50.7659 1.67559 51.1175 1.98816C51.4691 2.30072 51.6667 2.72464 51.6667 3.16667V39.5944" stroke="#333333" stroke-width="3" stroke-linecap="round"/>
<path d="M14.1667 1.5V23.7222L21.9792 19.2778L29.7917 23.7222V1.5" stroke="#333333" stroke-width="3" stroke-linecap="round" stroke-linejoin="round"/>
<path d="M7.91669 40.3889H51.6667M7.91669 51.5H51.6667" stroke="#333333" stroke-width="3" stroke-linecap="round"/>
<path d="M7.91669 51.5C6.25908 51.5 4.66937 50.9147 3.49727 49.8728C2.32517 48.8309 1.66669 47.4179 1.66669 45.9444C1.66669 44.471 2.32517 43.0579 3.49727 42.0161C4.66937 40.9742 6.25908 40.3889 7.91669 40.3889" stroke="#333333" stroke-width="3" stroke-linecap="round" stroke-linejoin="round"/>
</svg>
