<svg width="50" height="50" viewBox="0 0 50 50" fill="none" xmlns="http://www.w3.org/2000/svg">
<g clip-path="url(#clip0_203_2)">
<path fill-rule="evenodd" clip-rule="evenodd" d="M3.125 25C3.125 30.8016 5.42968 36.3656 9.53204 40.468C13.6344 44.5703 19.1984 46.875 25 46.875C30.8016 46.875 36.3656 44.5703 40.468 40.468C44.5703 36.3656 46.875 30.8016 46.875 25C46.875 19.1984 44.5703 13.6344 40.468 9.53204C36.3656 5.42968 30.8016 3.125 25 3.125C19.1984 3.125 13.6344 5.42968 9.53204 9.53204C5.42968 13.6344 3.125 19.1984 3.125 25V25ZM50 25C50 31.6304 47.3661 37.9893 42.6777 42.6777C37.9893 47.3661 31.6304 50 25 50C18.3696 50 12.0107 47.3661 7.32233 42.6777C2.63392 37.9893 0 31.6304 0 25C0 18.3696 2.63392 12.0107 7.32233 7.32233C12.0107 2.63392 18.3696 0 25 0C31.6304 0 37.9893 2.63392 42.6777 7.32233C47.3661 12.0107 50 18.3696 50 25V25ZM26.5625 35.9375C26.5625 36.3519 26.3979 36.7493 26.1049 37.0424C25.8118 37.3354 25.4144 37.5 25 37.5C24.5856 37.5 24.1882 37.3354 23.8951 37.0424C23.6021 36.7493 23.4375 36.3519 23.4375 35.9375V17.8344L16.7313 24.5438C16.4379 24.8371 16.0399 25.002 15.625 25.002C15.2101 25.002 14.8121 24.8371 14.5187 24.5438C14.2254 24.2504 14.0605 23.8524 14.0605 23.4375C14.0605 23.0226 14.2254 22.6246 14.5187 22.3312L23.8937 12.9562C24.0389 12.8107 24.2113 12.6953 24.4011 12.6165C24.591 12.5378 24.7945 12.4972 25 12.4972C25.2055 12.4972 25.409 12.5378 25.5989 12.6165C25.7887 12.6953 25.9611 12.8107 26.1063 12.9562L35.4813 22.3312C35.7746 22.6246 35.9395 23.0226 35.9395 23.4375C35.9395 23.8524 35.7746 24.2504 35.4813 24.5438C35.1879 24.8371 34.7899 25.002 34.375 25.002C33.9601 25.002 33.5621 24.8371 33.2687 24.5438L26.5625 17.8344V35.9375Z" fill="#333333"/>
</g>
<defs>
<clipPath id="clip0_203_2">
<rect width="50" height="50" fill="white"/>
</clipPath>
</defs>
</svg>
